PathFileType	4	(X/Y/Z)	4_coords_data.trc
DataRate	CameraRate	NumFrames	NumMarkers	Units	OrigDataRate	OrigDataStartFrame	OrigNumFrames
30.0	30.0	9	21	m	30.0	40	49
Frame#	Time	THUMB_TIP	THUMB_IP	THUMB_MCP	THUMB_CMC	INDEX_TIP	INDEX_DIP	INDEX_PIP	INDEX_MCP	MIDDLE_TIP	MIDDLE_DIP	MIDDLE_PIP	MIDDLE_MCP	RING_TIP	RING_DIP	RING_PIP	RING_MCP	PINKY_TIP	PINKY_DIP	PINKY_PIP	PINKY_MCP	WRIST
X1	Y1	Z1	X2	Y2	Z2	X3	Y3	Z3	X4	Y4	Z4	X5	Y5	Z5	X6	Y6	Z6	X7	Y7	Z7	X8	Y8	Z8	X9	Y9	Z9	X10	Y10	Z10	X11	Y11	Z11	X12	Y12	Z12	X13	Y13	Z13	X14	Y14	Z14	X15	Y15	Z15	X16	Y16	Z16	X17	Y17	Z17	X18	Y18	Z18	X19	Y19	Z19	X20	Y20	Z20	X21	Y21	Z21
39	1.3	-0.012909299850463867	-0.11181400299072265	1.0811199951171875	-0.022974599838256837	-0.08586820220947265	1.0888699951171874	-0.04691189956665039	-0.07213990020751954	1.1074300537109374	-0.06139860153198242	-0.038188098907470706	1.1172900390625	-0.009901960372924805	-0.07970020294189453	0.9831069946289063	-0.023303800582885743	-0.07577749633789063	1.0031300048828125	-0.03729270172119141	-0.0710073013305664	1.024219970703125	-0.060208900451660156	-0.06182770156860352	1.0576300048828124	0.000996204018592834	-0.04016310119628906	0.967041015625	-0.01528499984741211	-0.04002140045166016	0.98843798828125	-0.035858100891113284	-0.03943450164794922	1.0129500122070312	-0.06044839859008789	-0.03730009841918945	1.0475899658203125	0.000944115996360778	-0.004075520038604737	0.9704249877929687	-0.01585509967803955	-0.005943980216979981	0.9903300170898437	-0.035945598602294924	-0.00876881980895996	1.0127000122070313	-0.055681800842285155	-0.013836999893188477	1.04893994140625	-0.002574490070343017	0.033223499298095704	1.002760009765625	-0.01765439987182617	0.02721310043334961	1.0169199829101563	-0.03257949829101563	0.020731000900268554	1.0305699462890625	-0.05023109817504883	0.008007869720458985	1.0549000244140625	-0.0961269989013672	-0.010711700439453124	1.1305999755859375
40	1.3333333333333333	-0.018073299407958984	-0.11395099639892578	1.083050048828125	-0.026965400695800782	-0.08795980072021484	1.0908900146484375	-0.05078950119018555	-0.07332859802246093	1.109030029296875	-0.0637307014465332	-0.03870840072631836	1.1189599609375	-0.012407400131225587	-0.08154560089111328	0.9849400024414062	-0.02562420082092285	-0.07700029754638672	1.004969970703125	-0.03944459915161133	-0.07170240020751953	1.02602001953125	-0.06207540130615234	-0.06161840057373047	1.0591400146484375	0.001209720015525817	-0.042384700775146486	0.9697000122070313	-0.015259499549865723	-0.04155189895629883	0.9909010009765625	-0.03596390151977539	-0.04021080017089844	1.0152000122070313	-0.061290599822998046	-0.03702230072021485	1.04952001953125	0.002201339960098266	-0.0058575901985168455	0.9729400024414062	-0.01472309970855713	-0.00717041015625	0.9926489868164062	-0.034951400756835935	-0.009341449737548828	1.014989990234375	-0.05571799850463867	-0.013780300140380859	1.0506700439453125	-0.001051890015602111	0.03178730010986328	1.005010009765625	-0.01640530014038086	0.026244600296020507	1.0190700073242187	-0.03157099914550781	0.020200000762939454	1.03268994140625	-0.04983449935913086	0.007830709934234618	1.056800048828125	-0.09700489807128906	-0.009920160293579101	1.1323299560546876
41	1.3666666666666667	-0.02111630058288574	-0.11456300354003907	1.08475	-0.029749000549316406	-0.08843699645996093	1.092510009765625	-0.053138198852539065	-0.07340399932861329	1.110239990234375	-0.06553299713134765	-0.03839820098876953	1.1203599853515624	-0.01363949966430664	-0.08249620056152343	0.9866909790039062	-0.026991300582885742	-0.07753959655761719	1.0065700073242188	-0.04087649917602539	-0.07182209777832031	1.02747998046875	-0.0634740982055664	-0.06109870147705078	1.0603499755859376	0.001490720033645629	-0.043802398681640625	0.9717579956054687	-0.015121299743652344	-0.042498100280761716	0.992916015625	-0.03592900085449219	-0.04057490158081055	1.01702001953125	-0.06185240173339844	-0.0364718017578125	1.0508499755859375	0.004376550197601318	-0.007200419902801514	0.9757249755859375	-0.012996800422668457	-0.00802984046936035	0.995094970703125	-0.03376490020751953	-0.009600279808044433	1.01702001953125	-0.05559960174560547	-0.013349399566650391	1.052239990234375	0.001694689989089965	0.030505699157714845	1.008030029296875	-0.014232799530029297	0.02556909942626953	1.0215499877929688	-0.029939399719238282	0.019932300567626952	1.034739990234375	-0.04929949951171875	0.007964540004730224	1.0583599853515624	-0.09812169647216797	-0.008842769622802735	1.133760009765625
42	1.4	-0.023281700134277345	-0.11420700073242188	1.085550048828125	-0.03154509925842285	-0.08803350067138672	1.0933499755859375	-0.054742599487304686	-0.07283560180664063	1.110719970703125	-0.06660169982910157	-0.03751250076293945	1.1208900146484375	-0.015152899742126465	-0.08236900329589844	0.9873839721679688	-0.028427000045776366	-0.07717279815673828	1.007219970703125	-0.04220029830932617	-0.071185302734375	1.028030029296875	-0.06453369903564453	-0.060098598480224606	1.0608299560546874	0.001580530047416687	-0.04370899963378906	0.9729959716796875	-0.015277700424194336	-0.0421260986328125	0.9940250244140625	-0.03627299880981445	-0.039941200256347655	1.0178400268554688	-0.06245439910888672	-0.035517101287841794	1.051489990234375	0.005485129833221435	-0.007477149963378906	0.9773800048828125	-0.012192099571228028	-0.007972410202026367	0.9963679809570313	-0.033338901519775394	-0.009127109527587891	1.0179099731445314	-0.05588349914550781	-0.012472599983215331	1.0530699462890625	0.002604330062866211	0.030819099426269533	1.009469970703125	-0.013626899719238281	0.026131500244140626	1.0226900024414063	-0.02959589958190918	0.02075869941711426	1.03568994140625	-0.0492130012512207	0.008886139869689941	1.0590400390625	-0.09871170043945313	-0.00750793981552124	1.134280029296875
43	1.4333333333333333	-0.024924999237060548	-0.11327300262451172	1.0856199951171874	-0.03308060073852539	-0.08707740020751953	1.0935799560546875	-0.056139999389648435	-0.07156790161132813	1.11097998046875	-0.06737930297851563	-0.036131599426269534	1.1209000244140626	-0.015522500038146973	-0.08112300109863281	0.9878049926757813	-0.028934200286865233	-0.0759188003540039	1.007469970703125	-0.04283229827880859	-0.06990750122070312	1.028219970703125	-0.06530139923095703	-0.05875279998779297	1.0609000244140625	0.00132380998134613	-0.042975200653076175	0.9734500122070312	-0.015556799888610839	-0.04123049926757812	0.9943499755859375	-0.03666949844360352	-0.03881959915161133	1.017969970703125	-0.06312519836425781	-0.03411819839477539	1.0515799560546875	0.004812540054321289	-0.007009309768676758	0.9771270141601562	-0.012810400009155273	-0.007229680061340332	0.996260009765625	-0.033946800231933597	-0.008136019706726075	1.0178900146484375	-0.056456298828125	-0.011091799736022949	1.0530799560546875	0.0018800499439239502	0.03204199981689453	1.0090499877929688	-0.014309800148010254	0.027462099075317385	1.0223400268554688	-0.03032430076599121	0.02218429946899414	1.0353800048828126	-0.04977740097045898	0.010355099678039551	1.0588699951171876	-0.09914749908447265	-0.005941030025482178	1.1341199951171874
44	1.4666666666666666	-0.026250999450683595	-0.11226200103759766	1.0850899658203126	-0.034052501678466796	-0.08612000274658203	1.0930699462890625	-0.05707400131225586	-0.07033589935302734	1.1104000244140626	-0.06818190002441406	-0.034893798828125	1.12047998046875	-0.015871100425720215	-0.079529296875	0.9876060180664062	-0.029333499908447264	-0.07437930297851562	1.0071599731445313	-0.043240798950195315	-0.06840959930419922	1.0278900146484375	-0.06576399993896484	-0.05732360076904297	1.060699951171875	0.0011256799697875969	-0.04144549942016602	0.9733499755859375	-0.015850600242614747	-0.03974789810180664	0.9942540283203125	-0.03707059860229492	-0.03731880187988281	1.0178300170898438	-0.06354169845581055	-0.03275849914550781	1.05127001953125	0.004560719966888427	-0.00557951021194458	0.9769500122070313	-0.013217700004577638	-0.005794149875640869	0.9961300048828124	-0.03438840103149414	-0.00668572998046875	1.017719970703125	-0.056877201080322265	-0.00971852970123291	1.0525999755859374	0.001348819971084594	0.03379159927368164	1.009030029296875	-0.014917699813842774	0.029126300811767578	1.0222000122070312	-0.03096310043334961	0.02379140090942383	1.0351099853515624	-0.05038259887695312	0.011872400283813476	1.0586500244140624	-0.09985880279541015	-0.004531260013580322	1.133989990234375
45	1.5	-0.02718860054016113	-0.11143099975585938	1.0840400390625	-0.03479869842529297	-0.08530249786376953	1.09231005859375	-0.057753700256347656	-0.06945339965820313	1.1099599609375	-0.06864540100097656	-0.03401340103149414	1.1200799560546875	-0.01652149963378906	-0.07816899871826172	0.9870059814453125	-0.029962200164794922	-0.073097900390625	1.0066599731445312	-0.04384880065917969	-0.06718900299072265	1.027469970703125	-0.0662781982421875	-0.05628340148925781	1.0601400146484374	0.000544363975524902	-0.04009650039672852	0.9730269775390625	-0.016389799118041993	-0.03847219848632812	0.9937919921875	-0.037569698333740235	-0.036152999877929685	1.0173900146484376	-0.06414219665527343	-0.031632999420166015	1.0510400390625	0.0040776700973510745	-0.004380839824676514	0.9769349975585937	-0.013630200386047363	-0.004615540027618408	0.9959169921875	-0.03494919967651367	-0.005544489860534668	1.0174099731445312	-0.05751210021972656	-0.008542320251464845	1.0523399658203125	0.0007629240155220031	0.03500320053100586	1.0089299926757813	-0.015506199836730957	0.030331499099731447	1.02202001953125	-0.031708700180053714	0.025007200241088868	1.0349599609375	-0.0509813003540039	0.012992500305175781	1.0583800048828125	-0.1002249984741211	-0.0035882799625396727	1.1335799560546875
46	1.5333333333333334	-0.027509799957275392	-0.11079799652099609	1.0835899658203125	-0.03544490051269531	-0.0846792984008789	1.0919300537109375	-0.058082901000976565	-0.06896089935302735	1.10968994140625	-0.06900150299072266	-0.03341389846801758	1.1198800048828126	-0.0172406005859375	-0.07739140319824218	0.9866010131835937	-0.030639400482177736	-0.0723749008178711	1.006239990234375	-0.04450799942016601	-0.0665509033203125	1.027030029296875	-0.06695120239257812	-0.055754100799560544	1.0599100341796874	-0.000102788999676704	-0.03947090148925781	0.972780029296875	-0.01711359977722168	-0.037863800048828125	0.993552978515625	-0.03832120132446289	-0.03557080078125	1.0171199951171874	-0.06478890228271485	-0.031138200759887696	1.050719970703125	0.003497169971466064	-0.004069049835205078	0.9766710205078125	-0.014329700469970704	-0.00423488998413086	0.995573974609375	-0.03565829849243164	-0.005101240158081054	1.01702001953125	-0.058214500427246095	-0.007975500106811523	1.0520699462890626	0.00010451299697160701	0.035260700225830076	1.0086199951171875	-0.016302900314331056	0.030782400131225587	1.0215499877929688	-0.032563701629638675	0.02556529998779297	1.034510009765625	-0.05169869995117188	0.013614100456237793	1.058030029296875	-0.10053500366210938	-0.003225450038909912	1.1331300048828126
47	1.5666666666666667	-0.027876699447631836	-0.11072200012207031	1.0834200439453125	-0.035747398376464845	-0.0846675033569336	1.0917099609375	-0.05848260116577148	-0.0689374008178711	1.1095799560546875	-0.06939579772949218	-0.033400100708007814	1.11981005859375	-0.017131900787353514	-0.07724030303955078	0.9868319702148437	-0.030681600570678712	-0.07226069641113281	1.0064199829101563	-0.04471179962158203	-0.0664572982788086	1.0271199951171874	-0.06728959655761718	-0.05565539932250976	1.0599000244140624	-0.00036791801452636704	-0.03962649917602539	0.9728779907226562	-0.01736389923095703	-0.03794110107421875	0.9936380004882812	-0.03865039825439453	-0.03559090042114258	1.0171500244140625	-0.06511750030517578	-0.03100309944152832	1.0507900390625	0.0032421700954437254	-0.004280439853668213	0.9766699829101563	-0.014605199813842774	-0.004360779762268067	0.9955599975585937	-0.03595309829711914	-0.005108689785003662	1.017010009765625	-0.058614498138427736	-0.007870900154113769	1.052	-0.00036898198723793	0.03516279983520508	1.0084099731445313	-0.016827600479125977	0.030775199890136717	1.0213400268554687	-0.03312900161743164	0.025587799072265625	1.034300048828125	-0.052193199157714844	0.013731599807739258	1.057989990234375	-0.10085099792480469	-0.003048280000686645	1.1332099609375
